<?xml version="1.0" encoding="UTF-8"?> <!-- Generator: Adobe Illustrator 23.0.3, SVG Export Plug-In . SVG Version: 6.00 Build 0) --> <svg xmlns="http://www.w3.org/2000/svg" xmlns:xlink="http://www.w3.org/1999/xlink" id="Layer_1" x="0px" y="0px" viewBox="0 0 400 245" style="enable-background:new 0 0 400 245;" xml:space="preserve"> <style type="text/css"> .st0{fill:#EA4535;} .st1{fill:#F9BC15;} .st2{fill:#557EBF;} .st3{fill:#36A852;} </style> <g> <path class="st0" d="M171.3,125.9c0,18.8-14.7,32.7-32.8,32.7s-32.8-13.9-32.8-32.7c0-19,14.7-32.7,32.8-32.7 S171.3,107,171.3,125.9z M157,125.9c0-11.8-8.5-19.8-18.5-19.8c-9.9,0-18.5,8.1-18.5,19.8c0,11.7,8.5,19.8,18.5,19.8 C148.4,145.8,157,137.6,157,125.9z"></path> <path class="st1" d="M242.2,125.9c0,18.8-14.7,32.7-32.8,32.7s-32.8-13.9-32.8-32.7c0-19,14.7-32.7,32.8-32.7 S242.2,107,242.2,125.9z M227.8,125.9c0-11.8-8.5-19.8-18.5-19.8c-9.9,0-18.5,8.1-18.5,19.8c0,11.7,8.5,19.8,18.5,19.8 C219.2,145.8,227.8,137.6,227.8,125.9z"></path> <path class="st2" d="M310,95.2v58.8c0,24.2-14.3,34-31.1,34c-15.9,0-25.4-10.6-29-19.3l12.5-5.2c2.2,5.3,7.7,11.6,16.5,11.6 c10.8,0,17.5-6.7,17.5-19.2v-4.7h-0.5c-3.2,4-9.4,7.4-17.2,7.4c-16.4,0-31.4-14.3-31.4-32.6c0-18.5,15-32.8,31.4-32.8 c7.8,0,14,3.5,17.2,7.3h0.5v-5.3L310,95.2L310,95.2z M297.4,126.1c0-11.5-7.7-19.9-17.5-19.9c-9.9,0-18.2,8.4-18.2,19.9 c0,11.4,8.3,19.7,18.2,19.7C289.7,145.8,297.4,137.5,297.4,126.1z"></path> <path class="st3" d="M332.5,60.7v95.9h-14V60.7H332.5z"></path> <path class="st0" d="M387.2,136.7l11.2,7.4c-3.6,5.3-12.3,14.5-27.3,14.5c-18.6,0-32.5-14.4-32.5-32.7c0-19.5,14-32.7,30.9-32.7 c17,0,25.3,13.5,28,20.8l1.5,3.7l-43.7,18.1c3.3,6.6,8.6,9.9,15.9,9.9C378.4,145.8,383.4,142.2,387.2,136.7L387.2,136.7z M352.8,124.9l29.2-12.1c-1.6-4.1-6.4-6.9-12.1-6.9C362.6,105.9,352.4,112.3,352.8,124.9z"></path> <path class="st2" d="M52.6,117.4v-13.9h46.8c0.5,2.4,0.7,5.3,0.7,8.4c0,10.4-2.8,23.3-12,32.5c-8.9,9.3-20.3,14.3-35.4,14.3 c-28,0-51.6-22.8-51.6-50.8S24.6,57,52.6,57c15.5,0,26.5,6.1,34.8,14l-9.8,9.8c-5.9-5.6-14-9.9-25-9.9c-20.5,0-36.4,16.5-36.4,36.9 s16,36.9,36.4,36.9c13.3,0,20.8-5.3,25.7-10.2c3.9-3.9,6.5-9.5,7.5-17.2L52.6,117.4z"></path> </g> </svg> 