<svg xmlns="http://www.w3.org/2000/svg" role="img" viewBox="-6.95 49.05 413.66 146.66"><title>Google LLC logo</title><style>svg {enable-background:new 0 0 400 245}</style><style>.st0{fill:#ea4535}.st2{fill:#557ebf}</style><path d="M171.3 125.9c0 18.8-14.7 32.7-32.8 32.7s-32.8-13.9-32.8-32.7c0-19 14.7-32.7 32.8-32.7s32.8 13.8 32.8 32.7zm-14.3 0c0-11.8-8.5-19.8-18.5-19.8-9.9 0-18.5 8.1-18.5 19.8 0 11.7 8.5 19.8 18.5 19.8 9.9.1 18.5-8.1 18.5-19.8z" class="st0"/><path fill="#f9bc15" d="M242.2 125.9c0 18.8-14.7 32.7-32.8 32.7s-32.8-13.9-32.8-32.7c0-19 14.7-32.7 32.8-32.7s32.8 13.8 32.8 32.7zm-14.4 0c0-11.8-8.5-19.8-18.5-19.8-9.9 0-18.5 8.1-18.5 19.8 0 11.7 8.5 19.8 18.5 19.8 9.9.1 18.5-8.1 18.5-19.8z"/><path d="M310 95.2V154c0 24.2-14.3 34-31.1 34-15.9 0-25.4-10.6-29-19.3l12.5-5.2c2.2 5.3 7.7 11.6 16.5 11.6 10.8 0 17.5-6.7 17.5-19.2v-4.7h-.5c-3.2 4-9.4 7.4-17.2 7.4-16.4 0-31.4-14.3-31.4-32.6 0-18.5 15-32.8 31.4-32.8 7.8 0 14 3.5 17.2 7.3h.5v-5.3H310zm-12.6 30.9c0-11.5-7.7-19.9-17.5-19.9-9.9 0-18.2 8.4-18.2 19.9 0 11.4 8.3 19.7 18.2 19.7 9.8 0 17.5-8.3 17.5-19.7z" class="st2"/><path fill="#36a852" d="M332.5 60.7v95.9h-14V60.7h14z"/><path d="M387.2 136.7l11.2 7.4c-3.6 5.3-12.3 14.5-27.3 14.5-18.6 0-32.5-14.4-32.5-32.7 0-19.5 14-32.7 30.9-32.7 17 0 25.3 13.5 28 20.8l1.5 3.7-43.7 18.1c3.3 6.6 8.6 9.9 15.9 9.9 7.2.1 12.2-3.5 16-9zm-34.4-11.8l29.2-12.1c-1.6-4.1-6.4-6.9-12.1-6.9-7.3 0-17.5 6.4-17.1 19z" class="st0"/><path d="M52.6 117.4v-13.9h46.8c.5 2.4.7 5.3.7 8.4 0 10.4-2.8 23.3-12 32.5-8.9 9.3-20.3 14.3-35.4 14.3-28 0-51.6-22.8-51.6-50.8S24.6 57 52.6 57c15.5 0 26.5 6.1 34.8 14l-9.8 9.8c-5.9-5.6-14-9.9-25-9.9-20.5 0-36.4 16.5-36.4 36.9s16 36.9 36.4 36.9c13.3 0 20.8-5.3 25.7-10.2 3.9-3.9 6.5-9.5 7.5-17.2l-33.2.1z" class="st2"/></svg>