<svg xmlns="http://www.w3.org/2000/svg" role="img" xmlns:xlink="http://www.w3.org/1999/xlink" viewBox="-5.16 -5.16 268.06 94.31"><title>OpenLayers logo</title><defs><path id="a" d="M27.999.624v34.724H.569V.624h27.43z"/><path id="c" d="M.458.791h31.497v40.002H.458z"/><path id="e" d="M0 32.495V.999h40.001v31.496z"/><path id="g" d="M31.704 40.953H.207V.999h31.497v39.954z"/></defs><g fill="none" fill-rule="evenodd"><path fill="#4CB05C" d="M113.9759 55.657c1.262-.795 2.29-1.823 3.038-3.132.747-1.307 1.121-2.71 1.121-4.252V35.889c0-1.495-.374-2.943-1.121-4.252-.748-1.309-1.776-2.383-3.038-3.131-1.262-.794-2.617-1.168-4.112-1.168-1.449 0-2.851.374-4.113 1.168-1.261.795-2.289 1.822-3.037 3.131-.748 1.309-1.121 2.71-1.121 4.252v12.384c0 1.495.373 2.945 1.121 4.252.748 1.309 1.776 2.384 3.037 3.132 1.262.794 2.618 1.168 4.113 1.168 1.448-.047 2.85-.421 4.112-1.168m-11.776 5.888c-2.336-1.356-4.205-3.225-5.561-5.562-1.355-2.336-2.056-4.906-2.056-7.71V35.889c0-2.803.701-5.374 2.056-7.71 1.356-2.336 3.225-4.206 5.561-5.561 2.337-1.355 4.907-2.056 7.664-2.056 2.757 0 5.327.701 7.664 2.056 2.336 1.355 4.205 3.225 5.561 5.561 1.355 2.336 2.056 4.907 2.056 7.71v12.384c0 2.804-.701 5.374-2.056 7.71-1.356 2.337-3.225 4.206-5.561 5.562-2.337 1.355-4.907 2.055-7.664 2.055-2.757 0-5.327-.7-7.664-2.055m34.1603.9812c-2.01-.654-3.879-1.636-5.607-2.804-.188-.093-.328-.327-.421-.607-.094-.281-.047-.562.047-.795l2.008-3.645c.235-.467.609-.701 1.076-.701.327 0 .607.094.887.234 2.898 1.822 5.562 2.711 8.085 2.711 2.056 0 3.645-.515 4.813-1.497 1.169-.981 1.776-2.29 1.776-3.877 0-1.029-.28-1.916-.888-2.665-.561-.701-1.355-1.308-2.29-1.822-.981-.514-2.383-1.122-4.206-1.869l-1.681-.701c-2.618-1.122-4.814-2.57-6.59-4.299-1.776-1.729-2.71-4.3-2.71-7.664 0-2.384.514-4.44 1.589-6.262 1.074-1.823 2.523-3.225 4.439-4.253 1.869-1.028 4.066-1.495 6.542-1.495 2.057 0 4.066.327 6.075 1.028 2.01.701 3.832 1.635 5.468 2.804.187.093.327.327.42.607.094.28.047.561-.047.795l-1.915 3.645c-.234.467-.608.701-1.122.701-.327 0-.607-.094-.888-.234-1.495-.981-2.944-1.682-4.299-2.103-1.355-.42-2.57-.654-3.645-.654-1.729 0-3.084.467-4.112 1.402-.982.935-1.495 2.149-1.495 3.645 0 1.495.56 2.757 1.635 3.738 1.121.982 2.851 1.963 5.281 2.991.327.094 1.682.654 3.971 1.589 2.29.934 4.113 2.336 5.468 4.159 1.356 1.823 2.01 3.972 2.01 6.449 0 2.383-.562 4.533-1.683 6.402-1.121 1.869-2.71 3.318-4.766 4.393-2.056 1.074-4.393 1.589-7.057 1.589-2.103.093-4.158-.281-6.168-.935"/><path fill="#003A40" d="M169.0711 61.5447c-2.336-1.355-4.158-3.225-5.561-5.562-1.355-2.335-2.055-4.906-2.055-7.709v-12.384c0-2.804.7-5.374 2.055-7.711 1.356-2.336 3.225-4.206 5.561-5.561 2.337-1.355 4.86-2.056 7.664-2.056 2.431 0 4.673.42 6.776 1.309 2.056.887 3.832 2.149 5.328 3.785.233.28.327.607.327.981s-.141.795-.468 1.168l-2.523 2.664c-.328.327-.608.467-.935.467-.373 0-.747-.186-1.027-.514-1.916-2.056-4.394-3.084-7.384-3.084-1.449 0-2.851.374-4.112 1.168-1.262.795-2.291 1.823-3.038 3.131-.748 1.309-1.122 2.711-1.122 4.253v12.384c0 1.495.374 2.944 1.122 4.251.747 1.309 1.776 2.384 3.038 3.132 1.261.794 2.617 1.168 4.112 1.168 1.448 0 2.85-.374 4.112-1.122 1.262-.747 2.29-1.728 2.99-3.037.748-1.262 1.076-2.664 1.076-4.159v-2.851h-7.757c-.327 0-.655-.093-.889-.327-.233-.233-.327-.513-.327-.888v-4.159c0-.327.094-.654.327-.887.234-.234.515-.328.889-.328h12.196c.701 0 1.262.234 1.775.702.468.467.702 1.074.702 1.775v6.73c0 2.803-.702 5.374-2.056 7.709-1.356 2.337-3.225 4.207-5.562 5.562-2.336 1.355-4.859 2.056-7.57 2.056-2.804 0-5.327-.701-7.664-2.056m49.3018-18.7392v-.514c0-1.916-.654-3.505-2.01-4.86-1.308-1.355-2.944-2.009-4.813-2.009-1.869 0-3.505.654-4.814 2.009-1.308 1.355-2.009 2.944-2.009 4.86v.514h13.646zm-13.692 18.179c-2.104-1.215-3.786-2.945-5-5.047-1.216-2.104-1.87-4.44-1.87-6.963v-6.262c0-2.524.608-4.86 1.87-6.963 1.214-2.103 2.896-3.832 5-5.047 2.102-1.215 4.392-1.869 6.916-1.869 2.523 0 4.813.607 6.916 1.869 2.102 1.215 3.785 2.944 5 5.047 1.214 2.149 1.869 4.439 1.869 6.963v3.878c0 .701-.234 1.262-.7 1.777-.468.466-1.076.7-1.777.7h-18.085v.28c0 1.916.655 3.505 2.01 4.86 1.355 1.356 2.944 2.01 4.814 2.01h9.159c.327 0 .654.14.887.374.234.234.328.514.328.888v4.205c0 .327-.094.654-.328.889-.233.233-.513.327-.887.327h-9.159c-2.571-.047-4.908-.701-6.963-1.916z"/><g transform="translate(230 28.209)"><mask id="b" fill="#fff"><use xlink:href="#a"/></mask><path fill="#003A40" d="M19.074 26.6531c1.309-1.355 2.01-2.944 2.01-4.86v-7.617c0-1.916-.655-3.505-2.01-4.86-1.308-1.355-2.943-2.01-4.812-2.01-1.87 0-3.505.655-4.814 2.01-1.309 1.355-2.01 2.944-2.01 4.86v7.617c0 1.916.655 3.505 2.01 4.86 1.309 1.355 2.944 2.01 4.814 2.01 1.916 0 3.504-.701 4.812-2.01m-11.683 6.916c-2.102-1.215-3.785-2.851-5-4.953-1.214-2.104-1.822-4.346-1.822-6.776v-7.664c0-2.43.608-4.72 1.822-6.776 1.215-2.103 2.898-3.739 5-4.954 2.104-1.214 4.393-1.822 6.916-1.822 2.525 0 4.814.608 6.917 1.822 2.103 1.215 3.786 2.898 5 4.954 1.215 2.103 1.87 4.346 1.87 6.776v7.617c0 2.43-.608 4.719-1.87 6.776-1.214 2.103-2.897 3.738-5 4.953-2.103 1.215-4.393 1.823-6.917 1.823-2.523.046-4.859-.561-6.916-1.776" mask="url(#b)"/></g><g transform="translate(8 -.791)"><mask id="d" fill="#fff"><use xlink:href="#c"/></mask><path fill="#4CB05C" d="M31.9549 17.7078V.7908l-5.281 9.253c-14.393 3.225-25.281 15.608-26.216 30.749h8.458c1.029-12.29 10.795-22.057 23.039-23.085" mask="url(#d)"/></g><g transform="translate(0 43.209)"><mask id="f" fill="#fff"><use xlink:href="#e"/></mask><path fill="#003A40" d="M16.9163.9988H-.0007l9.253 5.28c3.225 14.394 15.608 25.282 30.749 26.216v-8.458c-12.29-1.028-22.057-10.795-23.085-23.038" mask="url(#f)"/></g><path fill="#003A40" d="M67.2454 39.9549h16.963l-9.253-5.28c-3.224-14.393-15.607-25.282-30.748-26.216v8.458c12.243 1.028 22.01 10.795 23.038 23.038"/><g transform="translate(44 43.209)"><mask id="h" fill="#fff"><use xlink:href="#g"/></mask><path fill="#4CB05C" d="M.2073 24.0369v16.963l5.28-9.253c14.393-3.224 25.282-15.607 26.217-30.748h-8.459c-1.028 12.243-10.795 22.01-23.038 23.038" mask="url(#h)"/></g><path fill="#003A40" d="M42.0574 43.8807c-1.028 0-1.822-.841-1.822-1.823 0-1.028.841-1.822 1.822-1.822.981 0 1.823.841 1.823 1.822 0 .982-.795 1.823-1.823 1.823zm2.617-4.393l-15.608-10.421 10.421 15.608 15.608 10.421-10.421-15.608z"/><path fill="#4CB05C" d="M39.488 44.674l-3.505-5.233-15.982 2.663 15.982 2.617-6.916 10.374 10.327-6.916 2.664 15.982 2.663-15.982zm8.691-5.233l6.917-10.375-10.375 6.917-2.664-15.982-2.616 15.982 5.234 3.504 3.504 5.234 15.983-2.663z"/></g></svg>