<svg xmlns="http://www.w3.org/2000/svg" role="img" viewBox="-19.88 -19.88 1033.76 193.76"><title>Tangram logo</title><style>svg {enable-background:new 0 0 994.8 154.3}</style><linearGradient id="a" x1="241.347" x2="743.772" y1="28.006" y2="44.213" gradientUnits="userSpaceOnUse"><stop offset="0" stop-color="#00af86"/><stop offset="1" stop-color="#0099d6"/></linearGradient><path fill="url(#a)" d="M532.6 48.5c-.4 8.1-2.6 14.3-6.8 18.5-4.2 4.2-10.1 6.3-17.8 6.3-3.9 0-7.5-.7-10.6-2-3.1-1.3-5.7-3.2-7.8-5.8-2.1-2.6-3.7-5.8-4.9-9.6-1.1-3.8-1.7-8.2-1.7-13.1V30.6c0-5 .6-9.3 1.7-13.2 1.2-3.8 2.8-7 5-9.6 2.2-2.6 4.8-4.5 7.9-5.8 3.1-1.3 6.6-2 10.5-2 7.8 0 13.7 2.2 17.7 6.5s6.3 10.6 6.9 18.7h-14.4c-.1-2.5-.3-4.7-.7-6.4-.4-1.7-1-3.1-1.7-4.1-.8-1-1.8-1.7-3.1-2.2-1.3-.4-2.8-.6-4.7-.6-1.9 0-3.6.3-4.9 1-1.4.6-2.5 1.7-3.3 3.2-.8 1.5-1.5 3.4-1.9 5.7-.4 2.4-.6 5.3-.6 8.7v12.2c0 3.3.2 6.2.5 8.5.3 2.4.9 4.3 1.7 5.8.8 1.5 1.9 2.6 3.2 3.3 1.3.7 3 1 5.1 1 1.8 0 3.3-.2 4.5-.6 1.3-.4 2.3-1 3.1-2 .8-.9 1.4-2.3 1.9-3.9.4-1.7.7-3.8.8-6.3h14.4z"/><linearGradient id="b" x1="241.411" x2="743.836" y1="26.012" y2="42.219" gradientUnits="userSpaceOnUse"><stop offset="0" stop-color="#00af86"/><stop offset="1" stop-color="#0099d6"/></linearGradient><path fill="url(#b)" d="M595.6 43c0 5-.6 9.4-1.9 13.2-1.2 3.8-3 6.9-5.2 9.4s-4.9 4.4-8.1 5.7c-3.1 1.3-6.6 1.9-10.5 1.9-3.8 0-7.3-.6-10.5-1.9-3.2-1.3-5.9-3.2-8.1-5.7-2.3-2.5-4-5.7-5.3-9.4-1.3-3.8-1.9-8.2-1.9-13.2V31.2c0-5.1.6-9.6 1.9-13.5 1.2-3.9 3-7.2 5.2-9.8 2.3-2.6 5-4.6 8.1-5.9 3.2-1.3 6.7-2 10.5-2s7.3.7 10.4 2c3.1 1.3 5.9 3.3 8.1 5.9 2.3 2.6 4 5.9 5.3 9.8 1.2 3.9 1.9 8.4 1.9 13.5V43zm-14.4-11.9c0-3.4-.2-6.3-.7-8.7-.5-2.4-1.2-4.4-2.2-5.9-.9-1.5-2.1-2.7-3.5-3.4-1.4-.7-3-1.1-4.8-1.1-1.9 0-3.5.4-4.9 1.1-1.4.7-2.6 1.8-3.5 3.4-.9 1.5-1.7 3.5-2.2 5.9-.5 2.4-.7 5.3-.7 8.7V43c0 3.2.2 6 .7 8.3.5 2.3 1.2 4.2 2.2 5.7 1 1.5 2.2 2.5 3.6 3.2 1.4.7 3.1 1 4.9 1 1.8 0 3.4-.3 4.8-1s2.6-1.8 3.5-3.2c.9-1.5 1.7-3.4 2.1-5.7.5-2.3.7-5.1.7-8.3V31.1z"/><linearGradient id="c" x1="241.467" x2="743.891" y1="24.294" y2="40.502" gradientUnits="userSpaceOnUse"><stop offset="0" stop-color="#00af86"/><stop offset="1" stop-color="#0099d6"/></linearGradient><path fill="url(#c)" d="M624.7.5l13.8 52.9L652.3.5h19.3v73.2h-14.8V53.9l1.3-30.5-14.6 50.3h-10l-14.7-50.3 1.4 30.5v19.8h-14.8V.5z"/><linearGradient id="d" x1="241.54" x2="743.965" y1="22.019" y2="38.226" gradientUnits="userSpaceOnUse"><stop offset="0" stop-color="#00af86"/><stop offset="1" stop-color="#0099d6"/></linearGradient><path fill="url(#d)" d="M696.1 47.3v25.4h-14.6V.5h24.6c3.7 0 7 .6 9.9 1.8 2.9 1.2 5.4 2.9 7.4 5s3.6 4.7 4.6 7.6c1.1 2.9 1.6 6.1 1.6 9.6s-.5 6.7-1.6 9.5-2.6 5.2-4.6 7.2c-2 2-4.5 3.5-7.4 4.6-2.9 1.1-6.2 1.6-9.8 1.6h-10.1zm0-12.1h10c1.5 0 2.8-.3 3.9-.8s2-1.3 2.7-2.2c.7-.9 1.2-2.1 1.6-3.4.3-1.3.5-2.7.5-4.3s-.2-3-.5-4.5c-.3-1.4-.9-2.7-1.6-3.8-.7-1.1-1.6-2-2.7-2.6-1.1-.7-2.4-1-3.9-1h-10v22.6z"/><linearGradient id="e" x1="241.617" x2="744.042" y1="19.636" y2="35.843" gradientUnits="userSpaceOnUse"><stop offset="0" stop-color="#00af86"/><stop offset="1" stop-color="#0099d6"/></linearGradient><path fill="url(#e)" d="M787.5.5v49.3c0 4.2-.6 7.7-1.8 10.7-1.2 3-2.8 5.4-4.9 7.3-2.1 1.9-4.6 3.3-7.5 4.2-2.9.9-6 1.3-9.5 1.3s-6.7-.4-9.6-1.3c-2.9-.9-5.4-2.3-7.5-4.2-2.1-1.9-3.7-4.3-4.9-7.3-1.2-3-1.7-6.5-1.7-10.7V.5h14.6v49.3c0 2.4.2 4.3.6 5.8.4 1.5 1 2.6 1.8 3.5.8.8 1.7 1.4 2.9 1.7 1.1.3 2.4.5 3.9.5s2.8-.2 3.9-.5 2.1-.9 2.8-1.7c.8-.8 1.3-2 1.7-3.5.4-1.5.6-3.4.6-5.8V.5h14.6z"/><linearGradient id="f" x1="241.684" x2="744.109" y1="17.566" y2="33.773" gradientUnits="userSpaceOnUse"><stop offset="0" stop-color="#00af86"/><stop offset="1" stop-color="#0099d6"/></linearGradient><path fill="url(#f)" d="M848.7 12.7h-17.9v60.1h-14.7V12.7h-17.5V.5h50.1z"/><linearGradient id="g" x1="241.712" x2="744.137" y1="16.696" y2="32.903" gradientUnits="userSpaceOnUse"><stop offset="0" stop-color="#00af86"/><stop offset="1" stop-color="#0099d6"/></linearGradient><path fill="url(#g)" d="M859.3.5H874v72.7h-14.7z"/><linearGradient id="h" x1="241.757" x2="744.181" y1="15.306" y2="31.513" gradientUnits="userSpaceOnUse"><stop offset="0" stop-color="#00af86"/><stop offset="1" stop-color="#0099d6"/></linearGradient><path fill="url(#h)" d="M935.2 73.2h-14.6l-21.5-47.7v47.7h-14.7V.5h14.7l21.5 47.7V.5h14.6z"/><linearGradient id="i" x1="241.82" x2="744.245" y1="13.332" y2="29.539" gradientUnits="userSpaceOnUse"><stop offset="0" stop-color="#00af86"/><stop offset="1" stop-color="#0099d6"/></linearGradient><path fill="url(#i)" d="M994.8 64.2c-.7.8-1.8 1.7-3 2.8-1.3 1-2.8 2-4.7 2.9-1.9.9-4.1 1.7-6.7 2.3-2.6.6-5.5 1-8.8 1-4 0-7.5-.6-10.7-1.9-3.2-1.2-5.9-3.1-8.2-5.6-2.3-2.5-4-5.6-5.2-9.5-1.2-3.8-1.8-8.3-1.8-13.4v-12c0-5.2.6-9.6 1.7-13.4 1.2-3.8 2.8-7 5-9.5s4.8-4.4 7.9-5.6c3.1-1.2 6.6-1.8 10.4-1.8 4 0 7.5.5 10.4 1.5 2.9 1 5.3 2.5 7.3 4.5 1.9 2 3.4 4.5 4.5 7.4s1.7 6.3 2 10.1H981c-.2-2.2-.5-4.1-1-5.6-.4-1.5-1.1-2.7-1.8-3.6-.8-.9-1.8-1.5-2.9-1.9-1.1-.4-2.5-.6-4.1-.6-1.9 0-3.5.3-4.9 1-1.4.7-2.6 1.7-3.5 3.2-.9 1.5-1.6 3.4-2.1 5.7-.5 2.3-.7 5.2-.7 8.5v12.1c0 3.4.3 6.2.8 8.6.5 2.3 1.3 4.2 2.3 5.7 1 1.5 2.3 2.5 3.9 3.2 1.6.7 3.4 1 5.5 1 1.3 0 2.3-.1 3.2-.3.9-.2 1.7-.4 2.3-.7.6-.3 1.1-.6 1.6-.9.4-.3.8-.5 1-.7v-13h-10V35H995v29.2z"/><linearGradient id="j" x1="241.03" x2="743.455" y1="37.84" y2="54.047" gradientUnits="userSpaceOnUse"><stop offset="0" stop-color="#00af86"/><stop offset="1" stop-color="#0099d6"/></linearGradient><path fill="url(#j)" d="M222.6.5v49.3c0 4.2-.6 7.7-1.8 10.7-1.2 3-2.8 5.4-4.9 7.3-2.1 1.9-4.6 3.3-7.5 4.2-2.9.9-6 1.3-9.5 1.3s-6.7-.4-9.6-1.3c-2.9-.9-5.4-2.3-7.5-4.2-2.1-1.9-3.7-4.3-4.9-7.3-1.2-3-1.7-6.5-1.7-10.7V.5H190v49.3c0 2.4.2 4.3.6 5.8s1 2.6 1.8 3.5c.8.8 1.7 1.4 2.9 1.7 1.1.3 2.4.5 3.9.5s2.8-.2 3.9-.5 2.1-.9 2.8-1.7c.8-.8 1.3-2 1.7-3.5s.6-3.4.6-5.8V.5h14.4z"/><linearGradient id="k" x1="241.074" x2="743.499" y1="36.476" y2="52.683" gradientUnits="userSpaceOnUse"><stop offset="0" stop-color="#00af86"/><stop offset="1" stop-color="#0099d6"/></linearGradient><path fill="url(#k)" d="M255.5 46.3h-7.2v26.4h-14.6V.5H257c3.6 0 6.8.5 9.7 1.4 2.8.9 5.2 2.3 7.2 4.2 2 1.8 3.5 4.1 4.5 6.8s1.6 5.9 1.6 9.4c0 2.6-.2 5-.7 7.1-.5 2.1-1.2 4-2.1 5.6-.9 1.6-2 3.1-3.3 4.3-1.3 1.2-2.7 2.3-4.4 3.2l12.7 29.6v.7h-15.7l-11-26.5zm-7.2-12.1h8.3c2.9 0 5.1-1 6.6-2.9s2.2-4.5 2.2-7.8c0-1.7-.2-3.2-.5-4.5-.3-1.3-.8-2.5-1.5-3.4-.7-.9-1.5-1.7-2.6-2.2-1.1-.5-2.3-.8-3.8-.8h-8.7v21.6z"/><linearGradient id="l" x1="241.125" x2="743.55" y1="34.881" y2="51.088" gradientUnits="userSpaceOnUse"><stop offset="0" stop-color="#00af86"/><stop offset="1" stop-color="#0099d6"/></linearGradient><path fill="url(#l)" d="M290.8 73.2V.5h22.5c3.6 0 6.9.4 9.8 1.2 2.9.8 5.3 2 7.3 3.7 2 1.6 3.5 3.7 4.6 6.2 1 2.5 1.6 5.4 1.6 8.8 0 1.7-.2 3.3-.5 4.8s-.9 3-1.6 4.3c-.8 1.3-1.7 2.5-2.8 3.6-1.1 1.1-2.5 2-4.1 2.7 1.9.5 3.4 1.3 4.7 2.4 1.3 1.1 2.3 2.3 3.1 3.8.8 1.4 1.4 3 1.7 4.7.4 1.7.5 3.4.5 5.2 0 7.1-1.9 12.4-5.8 16-3.9 3.6-9.5 5.4-16.9 5.4h-24.1zm14.6-42.3h7.6c2.9 0 5.1-.8 6.5-2.3 1.4-1.5 2.1-3.7 2.1-6.7 0-3.3-.7-5.7-2-7.1-1.3-1.4-3.5-2.1-6.5-2.1h-7.8v18.2zm0 10.7V61h9.4c1.4 0 2.7-.2 3.7-.7 1-.5 1.8-1.1 2.5-2 .6-.9 1.1-1.8 1.4-3 .3-1.1.4-2.4.4-3.8 0-3.1-.6-5.5-1.7-7.3-1.1-1.8-3.1-2.7-5.8-2.7h-9.9z"/><linearGradient id="m" x1="241.185" x2="743.609" y1="33.038" y2="49.245" gradientUnits="userSpaceOnUse"><stop offset="0" stop-color="#00af86"/><stop offset="1" stop-color="#0099d6"/></linearGradient><path fill="url(#m)" d="M380.9 58.3h-20L357 73.2h-15.5L364.2.5h13.4l22.9 72.7h-15.7l-3.9-14.9zm-16.8-12.2h13.6l-6.8-25.9-6.8 25.9z"/><linearGradient id="n" x1="241.264" x2="743.689" y1="30.57" y2="46.777" gradientUnits="userSpaceOnUse"><stop offset="0" stop-color="#00af86"/><stop offset="1" stop-color="#0099d6"/></linearGradient><path fill="url(#n)" d="M461.6 73.2h-14.7l-21.5-47.7v47.7h-14.7V.5h14.7l21.5 47.7V.5h14.7z"/><path fill="#4d5858" d="M206.1 123.4h-25.5v30.8h-5.2V88h34.5v4.9h-29.3v25.6h25.5zm94.2 4.7c0 4.3-.5 8-1.4 11.3-1 3.3-2.3 6-4.1 8.2-1.8 2.2-4 3.9-6.6 5-2.6 1.1-5.5 1.7-8.7 1.7-3.2 0-6.1-.6-8.6-1.7-2.6-1.1-4.8-2.8-6.6-5-1.8-2.2-3.2-4.9-4.2-8.2-1-3.3-1.5-7-1.5-11.3v-13.9c0-4.3.5-8 1.5-11.3 1-3.3 2.4-6 4.2-8.2 1.8-2.2 4-3.9 6.6-5 2.6-1.1 5.4-1.7 8.6-1.7 3.2 0 6.1.6 8.7 1.7 2.6 1.1 4.8 2.8 6.6 5 1.8 2.2 3.2 5 4.2 8.2 1 3.3 1.5 7 1.5 11.3v13.9zm-5.1-14c0-7.1-1.4-12.4-4.1-15.9-2.7-3.5-6.6-5.3-11.7-5.3-5 0-8.9 1.8-11.6 5.3-2.8 3.5-4.2 8.8-4.2 15.9v14c0 7.1 1.4 12.4 4.2 16 2.8 3.6 6.7 5.3 11.7 5.3 5.1 0 9-1.8 11.7-5.3 2.7-3.5 4-8.9 4-16v-14zM385.7 88v46.1c0 3.7-.5 6.8-1.6 9.4-1 2.6-2.4 4.6-4.2 6.2-1.8 1.6-3.8 2.8-6.2 3.5-2.3.7-4.9 1.1-7.5 1.1-2.8 0-5.3-.4-7.7-1.1-2.4-.7-4.4-1.9-6.2-3.5-1.7-1.6-3.1-3.7-4.1-6.2-1-2.6-1.5-5.7-1.5-9.4V88h5.1v46.1c0 2.8.4 5.2 1.1 7.2.7 2 1.7 3.5 3 4.8 1.3 1.2 2.8 2.1 4.5 2.6 1.7.5 3.7.8 5.8.8s4-.3 5.8-.8c1.7-.5 3.3-1.4 4.5-2.6 1.3-1.2 2.2-2.8 2.9-4.8.7-2 1.1-4.4 1.1-7.2V88h5.2zm88.2 66.2h-5.2l-31.2-56.4v56.4h-5.3V88h5.3l31.3 56.5V88h5.1zm46.4 0V88h15.6c3.5 0 6.7.6 9.6 1.7 2.9 1.2 5.4 2.9 7.4 5.1 2.1 2.2 3.7 5 4.8 8.3 1.1 3.3 1.7 7.1 1.7 11.4v13.2c0 4.3-.6 8.1-1.7 11.4-1.1 3.3-2.7 6.1-4.8 8.3-2.1 2.2-4.6 3.9-7.5 5.1-2.9 1.2-6.2 1.7-9.8 1.7h-15.3zm5.2-61.3v56.5h10.1c3 0 5.6-.5 7.9-1.4 2.3-.9 4.3-2.3 5.9-4.2 1.6-1.8 2.8-4.1 3.7-6.8.8-2.7 1.3-5.8 1.3-9.3v-13.4c0-3.6-.4-6.7-1.3-9.3-.8-2.7-2.1-4.9-3.6-6.7-1.6-1.8-3.5-3.2-5.8-4.1-2.3-.9-4.8-1.4-7.7-1.4h-10.5zm113.6 42.9h-24.8l-5.6 18.5h-5.4l21-66.3h4.8l21.1 66.3h-5.4l-5.7-18.5zm-23.4-4.9h21.8l-10.9-35.5-10.9 35.5zm119.2-38h-18.8v61.3h-5.2V92.9h-18.8V88h42.8zm62.8-4.9h5.2v66.3h-5.2zM908 128.1c0 4.3-.5 8-1.4 11.3-1 3.3-2.3 6-4.1 8.2-1.8 2.2-4 3.9-6.6 5-2.6 1.1-5.5 1.7-8.7 1.7-3.2 0-6.1-.6-8.6-1.7-2.6-1.1-4.8-2.8-6.6-5-1.8-2.2-3.2-4.9-4.2-8.2-1-3.3-1.5-7-1.5-11.3v-13.9c0-4.3.5-8 1.5-11.3 1-3.3 2.4-6 4.2-8.2 1.8-2.2 4-3.9 6.6-5 2.6-1.1 5.4-1.7 8.6-1.7 3.2 0 6.1.6 8.7 1.7 2.6 1.1 4.8 2.8 6.6 5 1.8 2.2 3.2 5 4.2 8.2 1 3.3 1.5 7 1.5 11.3v13.9zm-5.1-14c0-7.1-1.4-12.4-4.1-15.9-2.7-3.5-6.6-5.3-11.7-5.3-5 0-8.9 1.8-11.6 5.3-2.8 3.5-4.2 8.8-4.2 15.9v14c0 7.1 1.4 12.4 4.2 16 2.8 3.6 6.7 5.3 11.7 5.3 5.1 0 9-1.8 11.7-5.3 2.7-3.5 4-8.9 4-16v-14zm91.9 40.2h-5.2l-31.3-56.4v56.4h-5.2V88h5.2l31.3 56.5V88h5.2z"/><linearGradient id="o" x1="0" x2="153.742" y1="77.364" y2="77.364" gradientUnits="userSpaceOnUse"><stop offset="0" stop-color="#00af86"/><stop offset="1" stop-color="#0099d6"/></linearGradient><path fill="url(#o)" d="M128.1.5l-25.6 14.8v64.9L81.1 92.6l-4.3 2.5-4.3-2.5-21.3-12.3v-65L25.6.5 0 15.3v94.6l59.6 34.3 17.3 10v-16.3 16.3l17.3-10 59.6-34.4V15.3L128.1.5zM21 93.5l-17.3-10V67.1l17.3 10v16.4zm0-21.8l-17.3-10V45.3l17.3 10v16.4zm0-21.9l-17.3-10V23.5l17.3 10v16.3zM2.3 15.3L25.6 1.8l23.3 13.5-23.3 13.4L2.3 15.3zm59.3 128.3V130l14.9 8.6v13.6l-14.9-8.6zm30.7 0l-14.9 8.6v-13.6l14.9-8.6v13.6zm-15.4-20.3L28 95.1l23.3-13.5 20.2 11.7 5.5 3.1 5.5-3.1 20.2-11.7L126 95.1l-49.1 28.2zM150 82.7l-17.3 10V76.4l17.3-10v16.3zm0-21.4l-17.3 10V54.9L150 45v16.3zm0-21.4l-17.3 10V33.5l17.3-10v16.4zm-21.9-11.2l-23.3-13.4 23.3-13.5 23.3 13.5-23.3 13.4z"/></svg>