<svg id="Layer_1" data-name="Layer 1" xmlns="http://www.w3.org/2000/svg" xmlns:xlink="http://www.w3.org/1999/xlink" viewBox="0 0 1008.97312 206.91358"><defs><style>.cls-1{opacity:0.5;}.cls-2{fill:#4d5858;}.cls-3{fill:url(#linear-gradient);}.cls-4{fill:url(#linear-gradient-2);}.cls-5{fill:url(#linear-gradient-3);}.cls-6{fill:url(#linear-gradient-4);}.cls-7{fill:url(#linear-gradient-5);}.cls-8{fill:url(#linear-gradient-6);}.cls-9{fill:url(#linear-gradient-7);}.cls-10{fill:url(#linear-gradient-8);}.cls-11{fill:url(#linear-gradient-9);}.cls-12{fill:url(#linear-gradient-10);}.cls-13{fill:url(#linear-gradient-11);}.cls-14{fill:url(#linear-gradient-12);}.cls-15{fill:url(#linear-gradient-13);}.cls-16{fill:url(#linear-gradient-14);}.cls-17{fill:#d0e2f2;}.cls-18{fill:#43ae5a;}.cls-19{fill:#fdd048;}.cls-20{fill:url(#linear-gradient-15);}</style><linearGradient id="linear-gradient" x1="304.24775" y1="226.47802" x2="764.86912" y2="211.61931" gradientTransform="matrix(1, 0, 0, -1, 0, 268)" gradientUnits="userSpaceOnUse"><stop offset="0" stop-color="#00af86"/><stop offset="1" stop-color="#0099d6"/></linearGradient><linearGradient id="linear-gradient-2" x1="304.30802" y1="228.34654" x2="764.9295" y2="213.48783" xlink:href="#linear-gradient"/><linearGradient id="linear-gradient-3" x1="304.35869" y1="229.91788" x2="764.98011" y2="215.05917" xlink:href="#linear-gradient"/><linearGradient id="linear-gradient-4" x1="304.42643" y1="232.01753" x2="765.04774" y2="217.15882" xlink:href="#linear-gradient"/><linearGradient id="linear-gradient-5" x1="304.49499" y1="234.14234" x2="765.11633" y2="219.28363" xlink:href="#linear-gradient"/><linearGradient id="linear-gradient-6" x1="304.55682" y1="236.05845" x2="765.17818" y2="221.19974" xlink:href="#linear-gradient"/><linearGradient id="linear-gradient-7" x1="304.58349" y1="236.88714" x2="765.20491" y2="222.02843" xlink:href="#linear-gradient"/><linearGradient id="linear-gradient-8" x1="304.62468" y1="238.16206" x2="765.24602" y2="223.30325" xlink:href="#linear-gradient"/><linearGradient id="linear-gradient-9" x1="304.68313" y1="239.97625" x2="765.30461" y2="225.11754" xlink:href="#linear-gradient"/><linearGradient id="linear-gradient-10" x1="303.95666" y1="217.45335" x2="764.57802" y2="202.59463" xlink:href="#linear-gradient"/><linearGradient id="linear-gradient-11" x1="303.99912" y1="218.76997" x2="764.62043" y2="203.91126" xlink:href="#linear-gradient"/><linearGradient id="linear-gradient-12" x1="304.04432" y1="220.17253" x2="764.66574" y2="205.31372" xlink:href="#linear-gradient"/><linearGradient id="linear-gradient-13" x1="304.10027" y1="221.90577" x2="764.72157" y2="207.04697" xlink:href="#linear-gradient"/><linearGradient id="linear-gradient-14" x1="304.17327" y1="224.1688" x2="764.79463" y2="209.31" xlink:href="#linear-gradient"/><linearGradient id="linear-gradient-15" x1="16.05524" y1="165.13643" x2="208.48126" y2="165.13643" xlink:href="#linear-gradient"/></defs><title>left-logo-UCF</title><g class="cls-1"><path class="cls-2" d="M243.60544,104.26735h6.8335v75.00342h29.42578l-1.23144,6.14941H243.60544Z"/><path class="cls-2" d="M334.22556,157.71608l-6.585,27.7041h-6.833l19.89551-81.15283h8.88184l20.61621,81.15283h-7.34864l-6.68506-27.7041Zm20.3999-6.18848c-5.32959-21.54834-8.59814-34.729-9.61035-40.71875h-.25781c-1.15479,6.91553-4.74317,22.39453-9.09033,40.71875Z"/><path class="cls-2" d="M415.63962,185.42018V104.26735H424.582c24.50781,60.32764,27.6289,67.63525,28.68359,70.99072h.11963c-.51563-11.3291-.71582-23.6416-.71582-36.78418V104.26735h6.646v81.15283h-8.52685c-25.48584-63.11035-28.2876-70.13623-29.16065-73.15283h-.11962c.59667,10.20312.69677,23.98.69677,38.61572v34.53711Z"/><path class="cls-2" d="M511.9155,104.26735h16.90625c17.93164,0,26.42676,12.96142,26.42676,38.27392,0,27.60254-7.55469,42.87891-27.80078,42.87891H511.9155Zm6.85254,75.09814h8.25977c16.10937,0,21.11132-12.96386,21.11132-36.42383,0-22.604-6.28906-32.582-20.99218-32.582H518.768Z"/><path class="cls-2" d="M606.21238,164.61647c.61523,8.92773,5.10547,15.85742,14.54882,15.85742,9.00489,0,13.877-4.71582,13.877-15.27441,0-9.209-3.52246-14.00977-14.84668-19.4834-12.27539-5.87988-17.94531-11.42481-17.94531-23.07422,0-10.45752,6.6875-19.38672,19.39746-19.38672,14.72363,0,18.85742,10.82471,19.0957,19.95947h-6.77539c-.37695-3.67041-1.57031-13.98144-12.65918-13.98144-8.55566,0-12.14453,5.94482-12.14453,12.79736,0,8.47461,3.78906,12.48242,14.19726,17.47852,14.05469,6.78125,18.752,13.625,18.752,25.16015,0,12.84766-6.99219,21.78223-21.125,21.78223-15.38282,0-20.6084-10.166-21.28614-21.835Z"/><path class="cls-2" d="M730.22117,163.38112c-.3584,4.93945-2.5918,23.16992-21.21094,23.16992-21.06153,0-22.32227-23.77344-22.32227-42.459,0-22.61719,5.68946-40.937,23.35742-40.937,18.82813,0,19.7168,18.27295,19.875,22.66993h-6.99511c-.13867-2.74463-.75977-16.33887-13.01758-16.33887-14.14356,0-16.00977,19.78174-16.00977,34.563,0,17.7998,2.03321,36.209,15.35059,36.209,11.62012,0,13.59961-12.41113,13.958-16.87695Z"/><path class="cls-2" d="M785.78171,157.71608l-6.585,27.7041h-6.833l19.89551-81.15283h8.88184l20.61621,81.15283h-7.34863l-6.68457-27.7041Zm20.40039-6.18848c-5.33007-21.54834-8.59863-34.729-9.61035-40.71875h-.25781c-1.15527,6.91553-4.74316,22.39453-9.09082,40.71875Z"/><path class="cls-2" d="M867.19578,104.26735h19.6455c12.48047,0,20.83789,7.99365,20.83789,22.03467,0,13.96484-7.50293,23.27929-22.21191,23.27929H874.02878v35.83887h-6.833Zm6.833,39.29834h10.751c10.34082,0,15.86621-5.60156,15.86621-17.30176,0-9.27685-4.8584-15.96143-14.75-15.96143H874.02878Z"/><path class="cls-2" d="M989.13328,145.41627H961.6782v33.835h30.376l-1.00683,6.16894H954.88328V104.26735h35.64355v6.207H961.6782V139.2278h27.45508Z"/></g><path class="cls-3" d="M571.26865,60.27547c-.36674,7.42605-2.38365,13.11019-6.23421,16.96074s-9.25962,5.77582-16.319,5.77582a25.1502,25.1502,0,0,1-9.718-1.83359,17.88808,17.88808,0,0,1-7.151-5.31743,26.52936,26.52936,0,0,1-4.4923-8.80124,43.35764,43.35764,0,0,1-1.55857-12.01V43.8648a44.042,44.042,0,0,1,1.55857-12.10172,25.04781,25.04781,0,0,1,4.584-8.80125,18.84288,18.84288,0,0,1,7.24269-5.31742,24.68222,24.68222,0,0,1,9.62636-1.8336c7.151,0,12.56011,2.017,16.22729,5.95918s5.77581,9.71805,6.32593,17.14411h-13.2019a32.68789,32.68789,0,0,0-.64177-5.8675,11.048,11.048,0,0,0-1.55857-3.75887,6.45072,6.45072,0,0,0-2.842-2.017,14.48654,14.48654,0,0,0-4.30895-.55008,9.58157,9.58157,0,0,0-4.4923.91679,6.247,6.247,0,0,0-3.02542,2.93375A17.44467,17.44467,0,0,0,539.5475,35.797a49.412,49.412,0,0,0-.55008,7.97613V54.958a61.45755,61.45755,0,0,0,.45839,7.79278,15.23571,15.23571,0,0,0,1.55857,5.31742,7.19862,7.19862,0,0,0,2.93376,3.02543,9.87708,9.87708,0,0,0,4.67567.9168,13.2149,13.2149,0,0,0,4.12559-.55008,5.49643,5.49643,0,0,0,2.842-1.83359,10.00722,10.00722,0,0,0,1.74193-3.57551,30.7565,30.7565,0,0,0,.73343-5.77582Z"/><path class="cls-4" d="M629.02686,55.23308a37.41756,37.41756,0,0,1-1.74193,12.10172,23.65427,23.65427,0,0,1-4.76736,8.61789,19.5223,19.5223,0,0,1-7.426,5.22574,24.68259,24.68259,0,0,1-9.62637,1.74192,25.32645,25.32645,0,0,1-9.62637-1.74192,19.52156,19.52156,0,0,1-7.426-5.22574,24.58287,24.58287,0,0,1-4.859-8.61789,37.41929,37.41929,0,0,1-1.74193-12.10172V44.41488a39.17925,39.17925,0,0,1,1.74193-12.37676,25.403,25.403,0,0,1,4.76736-8.98461,20.42563,20.42563,0,0,1,7.426-5.4091,25.35528,25.35528,0,0,1,9.62637-1.8336,24.54888,24.54888,0,0,1,9.53471,1.8336,19.68583,19.68583,0,0,1,7.426,5.4091,25.53017,25.53017,0,0,1,4.859,8.98461,42.0032,42.0032,0,0,1,1.74194,12.37676v10.8182ZM615.825,44.3232a40.0653,40.0653,0,0,0-.64177-7.97613,15.51473,15.51473,0,0,0-2.017-5.40911,8.04159,8.04159,0,0,0-3.20879-3.11711,9.72464,9.72464,0,0,0-4.40062-1.00847,9.8378,9.8378,0,0,0-4.49233,1.00847,7.4797,7.4797,0,0,0-3.20879,3.11711,17.57676,17.57676,0,0,0-2.017,5.40911,40.0653,40.0653,0,0,0-.64177,7.97613V55.23308a36.82755,36.82755,0,0,0,.64177,7.60942,15.17754,15.17754,0,0,0,2.017,5.22574,8.34728,8.34728,0,0,0,3.30045,2.93375,10.09763,10.09763,0,0,0,4.49233.9168,9.69817,9.69817,0,0,0,4.40061-.9168,8.19258,8.19258,0,0,0,3.20879-2.93375,15.17269,15.17269,0,0,0,1.92525-5.22574,36.82755,36.82755,0,0,0,.64177-7.60942V44.3232Z"/><polygon class="cls-5" points="655.706 16.269 668.357 64.768 681.009 16.269 698.703 16.269 698.703 83.379 685.135 83.379 685.135 65.226 686.327 37.264 672.941 83.379 663.773 83.379 650.297 37.264 651.58 65.226 651.58 83.379 638.012 83.379 638.012 16.269 655.706 16.269"/><path class="cls-6" d="M721.165,59.17531V82.462H707.77975V16.26921h22.55318a23.56027,23.56027,0,0,1,9.07631,1.65024,19.71254,19.71254,0,0,1,6.78432,4.584,19.20882,19.20882,0,0,1,4.21725,6.96766,24.6346,24.6346,0,0,1,1.46685,8.80125,23.787,23.787,0,0,1-1.46685,8.70957,17.88055,17.88055,0,0,1-11.00157,10.8182,25.312,25.312,0,0,1-8.9846,1.46688H721.165Zm0-11.09324h9.168a8.56835,8.56835,0,0,0,3.57553-.73344,6.68316,6.68316,0,0,0,2.47536-2.017,9.8219,9.8219,0,0,0,1.46686-3.11711,17.23921,17.23921,0,0,0,.45839-3.94223,20.31282,20.31282,0,0,0-.45839-4.12559,10.7891,10.7891,0,0,0-1.46686-3.48383,6.84255,6.84255,0,0,0-2.47536-2.38367,6.49607,6.49607,0,0,0-3.57553-.9168h-9.168Z"/><path class="cls-7" d="M804.96023,16.26921V61.4673A26.14413,26.14413,0,0,1,803.31,71.277a17.57835,17.57835,0,0,1-4.49232,6.69262,18.08422,18.08422,0,0,1-6.876,3.85055,29.004,29.004,0,0,1-8.70957,1.19183,29.62314,29.62314,0,0,1-8.80123-1.19183,18.0842,18.0842,0,0,1-6.876-3.85055,17.579,17.579,0,0,1-4.49233-6.69262,26.23187,26.23187,0,0,1-1.55856-9.80972V16.26921h13.38521V61.4673a21.01589,21.01589,0,0,0,.55006,5.31742,7.58842,7.58842,0,0,0,1.65022,3.20879,5.55663,5.55663,0,0,0,2.65873,1.55856,14.17381,14.17381,0,0,0,7.15106,0,5.27154,5.27154,0,0,0,2.567-1.55856,7.014,7.014,0,0,0,1.55856-3.20879,21.01364,21.01364,0,0,0,.55006-5.31742V16.26921Z"/><polygon class="cls-8" points="861.068 27.454 844.658 27.454 844.658 82.554 831.181 82.554 831.181 27.454 815.137 27.454 815.137 16.269 861.068 16.269 861.068 27.454"/><rect class="cls-9" x="870.78624" y="16.26921" width="13.47693" height="66.65114"/><polygon class="cls-10" points="940.371 82.92 926.986 82.92 907.275 39.189 907.275 82.92 893.798 82.92 893.798 16.269 907.275 16.269 926.986 60 926.986 16.269 940.371 16.269 940.371 82.92"/><path class="cls-11" d="M995.01223,74.66918c-.64177.73344-1.65022,1.55855-2.75039,2.567a23.27038,23.27038,0,0,1-4.309,2.65871,29.989,29.989,0,0,1-6.14255,2.10864,35.51842,35.51842,0,0,1-8.0678.9168,25.62593,25.62593,0,0,1-9.80974-1.74192,19.32926,19.32926,0,0,1-7.51775-5.13406,22.12608,22.12608,0,0,1-4.76735-8.70957,41.07893,41.07893,0,0,1-1.65023-12.28508V44.04816A43.99768,43.99768,0,0,1,951.556,31.76308a23.83483,23.83483,0,0,1,4.584-8.70957,18.39636,18.39636,0,0,1,7.24271-5.13406,26.34433,26.34433,0,0,1,9.53472-1.65024,29.48735,29.48735,0,0,1,9.53471,1.3752,17.2,17.2,0,0,1,6.6926,4.12559,20.09167,20.09167,0,0,1,4.12559,6.78429,33.83242,33.83242,0,0,1,1.83359,9.25965h-12.7435a23.54454,23.54454,0,0,0-.91679-5.13406,9.26662,9.26662,0,0,0-1.65023-3.30047,6.40431,6.40431,0,0,0-2.65873-1.74191,11.2187,11.2187,0,0,0-3.75885-.55008,9.835,9.835,0,0,0-4.49232.9168,7.56193,7.56193,0,0,0-3.20879,2.93375,17.3116,17.3116,0,0,0-1.92525,5.22574,38.13116,38.13116,0,0,0-.64177,7.79277V55.04973a38.44957,38.44957,0,0,0,.73342,7.88445,15.1943,15.1943,0,0,0,2.10862,5.22574,7.95622,7.95622,0,0,0,3.57554,2.93375,12.37727,12.37727,0,0,0,5.04238.9168,13.28707,13.28707,0,0,0,2.93376-.275,9.61979,9.61979,0,0,0,2.10862-.64176c.55006-.275,1.00846-.55007,1.46686-.82512.36674-.275.73342-.45839.91679-.64175V57.70844h-9.168V47.89871H995.1956V74.66918Z"/><path class="cls-12" d="M287.06161,16.26921V61.4673a26.14453,26.14453,0,0,1-1.65023,9.80973,17.57876,17.57876,0,0,1-4.4923,6.69262,18.08451,18.08451,0,0,1-6.876,3.85055,29.00384,29.00384,0,0,1-8.70957,1.19183,29.62353,29.62353,0,0,1-8.80126-1.19183,18.08472,18.08472,0,0,1-6.876-3.85055A17.57852,17.57852,0,0,1,245.164,71.277a26.23187,26.23187,0,0,1-1.55856-9.80972V16.26921H257.174V61.4673a21.01393,21.01393,0,0,0,.55008,5.31742,7.58821,7.58821,0,0,0,1.65024,3.20879,5.55663,5.55663,0,0,0,2.6587,1.55856,14.17361,14.17361,0,0,0,7.151,0,5.27135,5.27135,0,0,0,2.567-1.55856,7.01356,7.01356,0,0,0,1.55856-3.20879,21.0149,21.0149,0,0,0,.55008-5.31742V16.26921Z"/><path class="cls-13" d="M317.22423,58.25851h-6.60094V82.462H297.23805V16.26921h21.36138a29.7422,29.7422,0,0,1,8.89294,1.28352,16.97341,16.97341,0,0,1,6.601,3.85054,15.49441,15.49441,0,0,1,4.12558,6.23422,24.941,24.941,0,0,1,1.46688,8.61789,28.48689,28.48689,0,0,1-.64176,6.50926,19.93335,19.93335,0,0,1-1.92528,5.13407,16.10382,16.10382,0,0,1-3.02542,3.94222,19.003,19.003,0,0,1-4.0339,2.93375l11.64333,27.13719v.64176H327.309Zm-6.60094-11.09324h7.60942a7.27526,7.27526,0,0,0,6.05087-2.65871c1.37519-1.74191,2.017-4.12559,2.017-7.151a18.293,18.293,0,0,0-.4584-4.12558,8.07857,8.07857,0,0,0-1.37519-3.11711,6.38472,6.38472,0,0,0-2.38368-2.017,8.135,8.135,0,0,0-3.48382-.73344h-7.97613V47.16527Z"/><path class="cls-14" d="M349.58715,82.92035V16.26921h20.62793a33.96646,33.96646,0,0,1,8.9846,1.10016,17.10732,17.10732,0,0,1,6.69261,3.39215,14.6781,14.6781,0,0,1,4.21727,5.68414,21.4775,21.4775,0,0,1,1.46688,8.06781,22.34462,22.34462,0,0,1-.4584,4.40063,14.54219,14.54219,0,0,1-1.46688,3.94222,17.73782,17.73782,0,0,1-2.567,3.30047,12.18588,12.18588,0,0,1-3.75887,2.47535,10.6682,10.6682,0,0,1,4.309,2.20032,11.58911,11.58911,0,0,1,2.84207,3.48383,13.43588,13.43588,0,0,1,1.55857,4.30894,20.523,20.523,0,0,1,.4584,4.76735c0,6.50925-1.74191,11.36828-5.31741,14.66875S378.46629,83.012,371.682,83.012H349.58715Zm13.38524-38.78051h6.96767c2.6587,0,4.67567-.73344,5.95918-2.10863s1.92528-3.39215,1.92528-6.14254c0-3.02543-.64177-5.22575-1.8336-6.50926s-3.20879-1.92528-5.95918-1.92528h-7.151V44.13984Zm0,9.80973V71.73543h8.61789a7.73163,7.73163,0,0,0,3.39216-.64176,6.35381,6.35381,0,0,0,2.292-1.83359,8.45951,8.45951,0,0,0,1.28351-2.7504,13.55058,13.55058,0,0,0,.36672-3.48382,12.67638,12.67638,0,0,0-1.55857-6.69262c-1.00848-1.65023-2.84208-2.47535-5.31741-2.47535h-9.07629Z"/><path class="cls-15" d="M432.19057,69.26008H413.85463l-3.57551,13.66027H396.06877l20.8113-66.65114h12.28508l20.99464,66.65114H435.76607ZM416.78839,58.07515h12.46844l-6.23421-23.745Z"/><polygon class="cls-16" points="506.176 82.92 492.699 82.92 472.988 39.189 472.988 82.92 459.511 82.92 459.511 16.269 472.988 16.269 492.699 60 492.699 16.269 506.176 16.269 506.176 82.92"/><path class="cls-17" d="M79.98779,64.49775c-.98723-13.35271-.31468-26.72013-.35559-40.08129q32.74354.044,65.487.08816-.02044,26.228-.0403,52.45432c-2.247-.706-3.93242-2.31663-5.63054-3.78469-3.231-2.79327-6.06244-2.68073-9.25278.16439-3.05916,2.72827-6.59935,4.91541-9.67473,7.62768-2.51814,2.22092-4.36284,1.92406-6.58878-.36952C108.2057,74.6964,102.377,68.89322,96.5073,63.13462c-7.01-6.87722-5.52393-7.6619-13.64589-.87821C81.92956,63.03467,80.9469,63.75211,79.98779,64.49775ZM123.189,30.93088c-9.12942-.03009-16.35949,6.72256-16.50871,15.41852a16.2676,16.2676,0,0,0,15.90035,16.66,15.78249,15.78249,0,0,0,16.27807-16.06084C138.85361,37.62407,132.33534,30.961,123.189,30.93088Z"/><path class="cls-18" d="M145.28666,99.841c-.45494-7.60375,2.69021-11.942,2.65811-19.57265-2.86586-3.30938-6.79828-5.626-8.49638-7.09408-3.231-2.79327-6.06247-2.6807-9.25278.16438-3.05918,2.72832-6.59935,4.91543-9.67474,7.62772-2.51816,2.22087-4.36284,1.924-6.58879-.36957-5.7264-5.90038-11.55508-11.70357-17.42476-17.46213-7.01005-6.87726-5.52394-7.66192-13.64588-.87823-.93188.77824-1.91455,1.49571-2.87363,2.24134.00909,12.33878-2.44489,23.34855-2.7516,35.67945-.10622,4.26991,3.40836,8.68911,7.45745,10.44748,7.59562,3.45874,14.56416,8.04865,21.73738,12.25042,3.85032,2.25538,6.94954,3.19736,11.18455.43047,7.07985-4.62563,14.6508-8.49934,22.01479-12.68979C144.74788,108.71,145.58771,104.87209,145.28666,99.841Z"/><rect class="cls-17" x="100.97522" y="26.51494" width="43.79697" height="38.84601"/><path class="cls-19" d="M122.5559,33.9696c7.41361.02444,12.697,5.42519,12.70112,12.98316a12.79254,12.79254,0,0,1-13.19423,13.01815,13.18574,13.18574,0,0,1-12.88807-13.50379C109.29567,39.41859,115.156,33.94521,122.5559,33.9696Z"/><path class="cls-20" d="M176.32687,6.71312h0L144.29757,25.23h0v81.19929l-26.77451,15.51419-5.37992,3.12786h0l-5.37993-3.12786L80.11384,106.55445V25.23h0L48.08454,6.71312h0L16.05524,25.23h0V143.58833l74.56822,42.91425h0L112.26825,199.014V178.62037h0V199.014l21.64481-12.51145h0l74.5682-43.03937V25.23h0ZM42.32928,123.06956l-21.6448-12.51145V90.03934l21.6448,12.51145Zm0-27.275L20.68448,83.28316V62.76439l21.6448,12.51145Zm0-27.40006L20.68448,55.88309V35.48944l21.6448,12.51145ZM18.93288,25.23,48.08454,8.3396,77.23621,25.23,48.08454,41.99539ZM93.12575,185.75191V168.73633l18.642,10.75985v17.01558Zm38.41014,0-18.64206,10.75985V179.49618l18.64206-10.75985Zm-19.26763-25.39824-61.181-35.28228L80.239,108.18094l25.27312,14.63838h0l6.88129,3.87855,6.8813-3.87855h0l25.27311-14.63838,29.15168,16.89045Zm91.45866-50.79648-21.6448,12.51145V101.675l21.6448-12.51145Zm0-26.77449-21.6448,12.51145V74.77538l21.6448-12.38633Zm0-26.77449-21.6448,12.51145V48.00089l21.6448-12.51145Zm-27.4-14.01282L147.1752,25.23006,176.32687,8.3396l29.15167,16.89046Z"/></svg>